<svg width="36" height="36" viewBox="0 0 36 36" fill="none" xmlns="http://www.w3.org/2000/svg">
<g id="Social_Networks/Fill/Twitter">
<path id="Shape" d="M32.1499 11.0492C32.2388 10.9753 32.3055 10.8781 32.3425 10.7685C32.3795 10.659 32.3854 10.5413 32.3595 10.4285C32.3336 10.3158 32.2769 10.2125 32.1957 10.1301C32.1146 10.0477 32.0122 9.98939 31.8999 9.96172L30.9124 9.71172C30.8226 9.68924 30.7389 9.6471 30.6674 9.58834C30.5959 9.52958 30.5383 9.45567 30.4988 9.37194C30.4594 9.28822 30.439 9.19677 30.4392 9.10421C30.4393 9.01165 30.4601 8.92029 30.4999 8.83672L31.0499 7.72422C31.1018 7.61642 31.1217 7.49596 31.1072 7.37717C31.0928 7.25838 31.0445 7.14625 30.9681 7.0541C30.8918 6.96195 30.7906 6.89366 30.6765 6.85734C30.5625 6.82102 30.4404 6.8182 30.3249 6.84922L27.8249 7.54922C27.7317 7.57639 27.6335 7.58149 27.5381 7.56414C27.4426 7.54678 27.3525 7.50744 27.2749 7.44922C26.193 6.63783 24.8772 6.19922 23.5249 6.19922C21.8673 6.19922 20.2776 6.8577 19.1054 8.0298C17.9333 9.2019 17.2749 10.7916 17.2749 12.4492V12.8992C17.2754 12.976 17.2477 13.0503 17.197 13.1079C17.1463 13.1656 17.0761 13.2025 16.9999 13.2117C13.4874 13.6242 10.1249 11.8367 6.49987 7.66172C6.42112 7.57487 6.31995 7.51142 6.20748 7.47834C6.09501 7.44526 5.9756 7.44383 5.86237 7.47422C5.76036 7.5211 5.67287 7.5946 5.60908 7.68698C5.5453 7.77936 5.50757 7.88722 5.49987 7.99922C4.99919 10.0559 5.20162 12.221 6.07487 14.1492C6.10071 14.2004 6.11198 14.2576 6.10747 14.3147C6.10296 14.3719 6.08283 14.4266 6.04928 14.4731C6.01573 14.5196 5.97006 14.5559 5.91725 14.5781C5.86445 14.6004 5.80654 14.6077 5.74987 14.5992L4.34987 14.3242C4.25045 14.3082 4.14863 14.3165 4.0531 14.3483C3.95756 14.3802 3.87113 14.4346 3.80116 14.507C3.73119 14.5795 3.67976 14.6677 3.65124 14.7643C3.62273 14.8609 3.61797 14.9629 3.63737 15.0617C3.74529 16.021 4.06759 16.9438 4.58039 17.7617C5.0932 18.5796 5.78339 19.2717 6.59987 19.7867C6.6527 19.8123 6.69726 19.8523 6.72844 19.902C6.75962 19.9517 6.77615 20.0093 6.77615 20.068C6.77615 20.1267 6.75962 20.1842 6.72844 20.2339C6.69726 20.2837 6.6527 20.3236 6.59987 20.3492L5.93737 20.6117C5.85691 20.644 5.78404 20.6926 5.7234 20.7545C5.66275 20.8165 5.61565 20.8903 5.58508 20.9715C5.55452 21.0526 5.54116 21.1392 5.54586 21.2257C5.55055 21.3123 5.5732 21.3969 5.61237 21.4742C5.97873 22.2759 6.53406 22.9767 7.23074 23.5166C7.92742 24.0566 8.74465 24.4195 9.61237 24.5742C9.6727 24.5961 9.72482 24.6361 9.76165 24.6886C9.79849 24.7412 9.81825 24.8038 9.81825 24.868C9.81825 24.9321 9.79849 24.9948 9.76165 25.0473C9.72482 25.0999 9.6727 25.1398 9.61237 25.1617C7.91282 25.8646 6.08895 26.2175 4.24987 26.1992C4.08411 26.1661 3.91197 26.2001 3.77131 26.2939C3.63066 26.3877 3.53302 26.5335 3.49987 26.6992C3.46672 26.865 3.50077 27.0371 3.59454 27.1778C3.68831 27.3184 3.83411 27.4161 3.99987 27.4492C7.1843 28.9595 10.6513 29.7816 14.1749 29.8617C17.2742 29.909 20.3183 29.0392 22.9249 27.3617C25.0689 25.9305 26.8255 23.9911 28.0382 21.7163C29.2508 19.4415 29.8818 16.902 29.8749 14.3242V13.2367C29.8756 13.146 29.8962 13.0564 29.935 12.9744C29.9739 12.8924 30.0301 12.8198 30.0999 12.7617L32.1499 11.0492Z" fill="white"/>
</g>
</svg>
