<svg width="36" height="36" viewBox="0 0 36 36" fill="none" xmlns="http://www.w3.org/2000/svg">
<g id="Social_Networks/Fill/Medium">
<path id="Shape" fill-rule="evenodd" clip-rule="evenodd" d="M7.5 1.5C4.18629 1.5 1.5 4.18629 1.5 7.5V28.5C1.5 31.8137 4.18629 34.5 7.5 34.5H28.5C31.8137 34.5 34.5 31.8137 34.5 28.5V7.5C34.5 4.18629 31.8137 1.5 28.5 1.5H7.5ZM12.491 10.5332C16.4268 10.5332 19.6175 13.8757 19.6175 17.999C19.6175 22.1222 16.427 25.4649 12.491 25.4649C8.555 25.4649 5.36426 22.1214 5.36426 17.999C5.36426 13.8765 8.55524 10.5332 12.491 10.5332ZM23.8721 10.9703C25.8402 10.9703 27.4355 14.1178 27.4355 17.999C27.4355 21.8811 25.8399 25.0276 23.8719 25.0276C21.9039 25.0276 20.3088 21.8801 20.3088 17.999C20.3088 14.1178 21.9041 10.9703 23.8721 10.9703ZM29.38 11.7024C30.0723 11.7024 30.6333 14.5224 30.6333 17.999C30.6333 21.4765 30.072 24.2955 29.38 24.2955C28.688 24.2955 28.127 21.4762 28.127 17.999C28.127 14.5217 28.6878 11.7024 29.38 11.7024Z" fill="white"/>
</g>
</svg>
