<svg width="36" height="36" viewBox="0 0 36 36" fill="none" xmlns="http://www.w3.org/2000/svg">
<g id="Social_Networks/Fill/LinkedIn">
<path id="Shape" d="M11.5741 29.0328H6.77504V13.175H11.7828V29.0328H11.5741ZM9.2789 11.0884C7.60966 11.0884 6.35773 9.62785 6.35773 8.16727C6.35773 6.49802 7.60966 5.24609 9.2789 5.24609C10.9481 5.24609 12.2001 6.49802 12.2001 8.16727C11.9914 9.62785 10.7395 11.0884 9.2789 11.0884ZM30.1444 29.0328H25.1367V21.3125C25.1367 19.4346 25.1367 17.1394 22.6328 17.1394C20.129 17.1394 19.7117 19.226 19.7117 21.3125V29.2414H14.7039V13.175H19.503V15.2615C20.129 14.0096 21.7982 12.7577 24.0934 12.7577C29.1011 12.7577 29.9358 16.0962 29.9358 20.2693V29.0328H30.1444Z" fill="white"/>
</g>
</svg>
