<svg width="30" height="30" viewBox="0 0 30 30" fill="none" xmlns="http://www.w3.org/2000/svg">
<g id="book-solid 1" clip-path="url(#clip0_1413_1498)">
<path id="Vector" d="M8.33333 4.33301H23.3333V5.62467H8.33333V4.33301Z" fill="white"/>
<path id="Vector_2" d="M24.1667 6.66699H8.21667C8.004 6.66398 7.79415 6.61792 7.59977 6.5316C7.40539 6.44528 7.2305 6.32049 7.08566 6.16475C6.94082 6.009 6.82902 5.82554 6.75701 5.62541C6.685 5.42529 6.65427 5.21265 6.66667 5.00033C6.66563 4.57779 6.82512 4.17063 7.11288 3.86122C7.40063 3.5518 7.79516 3.36324 8.21667 3.33366H24.1667C24.3877 3.33366 24.5996 3.24586 24.7559 3.08958C24.9122 2.9333 25 2.72134 25 2.50033C25 2.27931 24.9122 2.06735 24.7559 1.91107C24.5996 1.75479 24.3877 1.66699 24.1667 1.66699H8.21667C7.35299 1.69724 6.53482 2.06174 5.93471 2.68361C5.3346 3.30548 4.99947 4.13612 5 5.00033C4.99194 5.13632 4.99194 5.27267 5 5.40866C4.99197 5.47508 4.99197 5.54223 5 5.60866V25.0003C4.99947 25.8645 5.3346 26.6952 5.93471 27.317C6.53482 27.9389 7.35299 28.3034 8.21667 28.3337H24.1667C24.3877 28.3337 24.5996 28.2459 24.7559 28.0896C24.9122 27.9333 25 27.7213 25 27.5003V7.55866C25.0005 7.33194 24.9146 7.11355 24.7598 6.94791C24.605 6.78228 24.3929 6.68182 24.1667 6.66699Z" fill="white"/>
</g>
<defs>
<clipPath id="clip0_1413_1498">
<rect width="30" height="30" fill="white"/>
</clipPath>
</defs>
</svg>
