<svg width="215" height="41" viewBox="0 0 215 41" fill="none" xmlns="http://www.w3.org/2000/svg">
<g id="Group 37171">
<g id="Rectangle 4567">
<rect width="215" height="41" rx="20.5" fill="url(#paint0_radial_1253_1365)" style="mix-blend-mode:darken"/>
</g>
<path id="VIEW COURSES" d="M51.944 25H49.496L44.92 14.28H46.968L50.68 23.256H50.808L54.488 14.28H56.52L51.944 25ZM59.2311 25H57.5031V14.28H59.2311V25ZM69.6573 25H61.0813V14.28H69.6573V15.832H62.8093V18.84H69.4173V20.376H62.8093V23.448H69.6573V25ZM76.0531 25H73.5091L70.6771 14.28H72.5971L74.3411 21.064L74.8211 23.336H74.9491L75.5251 21.064L77.6851 14.28H80.1971L82.5011 21.064L83.1091 23.336H83.2371L83.6851 21.064L85.2851 14.28H87.1731L84.4851 25H81.9411L79.7811 18.76L78.9971 16.008H78.8531L78.0851 18.76L76.0531 25ZM96.641 25.16C93.313 25.16 91.105 22.984 91.105 19.64C91.105 16.296 93.313 14.12 96.641 14.12C99.665 14.12 101.777 15.72 101.777 18.28V18.504H99.873V18.28C99.873 16.648 98.833 15.768 96.657 15.768C94.145 15.768 92.929 16.968 92.929 19.64C92.929 22.312 94.145 23.496 96.657 23.496C98.833 23.496 99.873 22.632 99.873 20.984V20.776H101.777V20.984C101.777 23.56 99.681 25.16 96.641 25.16ZM108.564 25.16C105.204 25.16 102.98 22.984 102.98 19.64C102.98 16.296 105.204 14.12 108.564 14.12C111.956 14.12 114.164 16.296 114.164 19.64C114.164 22.984 111.956 25.16 108.564 25.16ZM108.564 23.496C111.108 23.496 112.34 22.312 112.34 19.64C112.34 16.968 111.108 15.768 108.564 15.768C106.02 15.768 104.804 16.968 104.804 19.64C104.804 22.312 106.02 23.496 108.564 23.496ZM120.651 25.16C117.451 25.16 115.627 23.464 115.627 20.552V14.28H117.339V20.44C117.339 22.6 118.299 23.496 120.651 23.496C123.003 23.496 123.963 22.6 123.963 20.44V14.28H125.691V20.552C125.691 23.464 123.867 25.16 120.651 25.16ZM129.2 25H127.472V14.28H133.04C135.472 14.28 136.976 15.432 136.976 17.432C136.976 19.208 135.808 20.296 133.792 20.408V20.52C134.624 20.744 135.008 21.224 135.392 21.896L137.184 25H135.2L133.488 22.04C133.008 21.192 132.512 20.84 131.168 20.84H129.2V25ZM129.2 15.832V19.512H133.024C134.464 19.512 135.184 19.016 135.184 17.672C135.184 16.36 134.464 15.832 133.024 15.832H129.2ZM142.968 25.16C139.768 25.16 138.136 23.752 138.136 21.496V21.4H139.864V21.656C139.864 22.936 140.616 23.576 142.968 23.576C145.016 23.576 145.736 23.128 145.736 22.12C145.736 21.192 145.192 20.84 143.832 20.584L141.208 20.152C139.4 19.832 138.12 19 138.12 17.24C138.12 15.688 139.4 14.12 142.728 14.12C145.864 14.12 147.288 15.688 147.288 17.784V17.88H145.576V17.672C145.576 16.36 144.792 15.704 142.568 15.704C140.616 15.704 139.848 16.184 139.848 17.144C139.848 18.072 140.392 18.376 141.656 18.648L144.264 19.096C146.408 19.48 147.464 20.456 147.464 22.024C147.464 23.656 146.136 25.16 142.968 25.16ZM157.517 25H148.941V14.28H157.517V15.832H150.669V18.84H157.277V20.376H150.669V23.448H157.517V25ZM163.609 25.16C160.409 25.16 158.777 23.752 158.777 21.496V21.4H160.505V21.656C160.505 22.936 161.257 23.576 163.609 23.576C165.657 23.576 166.377 23.128 166.377 22.12C166.377 21.192 165.833 20.84 164.473 20.584L161.849 20.152C160.041 19.832 158.761 19 158.761 17.24C158.761 15.688 160.041 14.12 163.369 14.12C166.505 14.12 167.929 15.688 167.929 17.784V17.88H166.217V17.672C166.217 16.36 165.433 15.704 163.209 15.704C161.257 15.704 160.489 16.184 160.489 17.144C160.489 18.072 161.033 18.376 162.297 18.648L164.905 19.096C167.049 19.48 168.105 20.456 168.105 22.024C168.105 23.656 166.777 25.16 163.609 25.16Z" fill="white"/>
</g>
<defs>
<radialGradient id="paint0_radial_1253_1365" cx="0" cy="0" r="1" gradientUnits="userSpaceOnUse" gradientTransform="translate(107.5 20.5) rotate(90) scale(20.5 107.5)">
<stop stop-color="#00152E"/>
<stop offset="1" stop-color="#00060D"/>
</radialGradient>
</defs>
</svg>
