<svg width="189" height="60" viewBox="0 0 189 60" fill="none" xmlns="http://www.w3.org/2000/svg">
<g id="lButton">
<g id="Rectangle 4566">
<rect width="189" height="60" rx="4" fill="url(#paint0_linear_1218_1300)" style="mix-blend-mode:color"/>
</g>
<path id="learn more" d="M35.42 36H25V22.6H27.16V34.06H35.42V36ZM48.7864 36H38.0664V22.6H48.7864V24.54H40.2264V28.3H48.4864V30.22H40.2264V34.06H48.7864V36ZM53.1188 36H50.7188L56.6988 22.6H59.7388L65.7188 36H63.2788L61.7387 32.52H54.6588L53.1188 36ZM57.3388 26.5L55.5188 30.58H60.8788L59.0588 26.5L58.2788 24.6H58.1188L57.3388 26.5ZM70.1288 36H67.9688V22.6H74.9288C77.9688 22.6 79.8488 24.04 79.8488 26.54C79.8488 28.76 78.3888 30.12 75.8688 30.26V30.4C76.9088 30.68 77.3888 31.28 77.8688 32.12L80.1088 36H77.6288L75.4888 32.3C74.8888 31.24 74.2688 30.8 72.5888 30.8H70.1288V36ZM70.1288 24.54V29.14H74.9088C76.7088 29.14 77.6088 28.52 77.6088 26.84C77.6088 25.2 76.7088 24.54 74.9088 24.54H70.1288ZM84.8163 36H82.6563V22.6H84.9763L90.9763 30.44L92.7163 32.94H92.8763L92.7763 30.52V22.6H94.9363V36H92.6163L86.5763 28.18L84.8963 25.82H84.7363L84.8163 28.14V36ZM105.012 36H102.852V22.6H105.792L109.652 30.36L110.872 33.14H111.032L112.212 30.36L116.032 22.6H118.972V36H116.812V27.78L116.892 25.84H116.732L115.912 27.78L112.212 35.2H109.612L105.912 27.78L105.092 25.84H104.932L105.012 27.78V36ZM128.807 36.2C124.607 36.2 121.827 33.48 121.827 29.3C121.827 25.12 124.607 22.4 128.807 22.4C133.047 22.4 135.807 25.12 135.807 29.3C135.807 33.48 133.047 36.2 128.807 36.2ZM128.807 34.12C131.987 34.12 133.527 32.64 133.527 29.3C133.527 25.96 131.987 24.46 128.807 24.46C125.627 24.46 124.107 25.96 124.107 29.3C124.107 32.64 125.627 34.12 128.807 34.12ZM140.812 36H138.652V22.6H145.612C148.652 22.6 150.532 24.04 150.532 26.54C150.532 28.76 149.072 30.12 146.552 30.26V30.4C147.592 30.68 148.072 31.28 148.552 32.12L150.792 36H148.312L146.172 32.3C145.572 31.24 144.952 30.8 143.272 30.8H140.812V36ZM140.812 24.54V29.14H145.592C147.392 29.14 148.292 28.52 148.292 26.84C148.292 25.2 147.392 24.54 145.592 24.54H140.812ZM164.06 36H153.34V22.6H164.06V24.54H155.5V28.3H163.76V30.22H155.5V34.06H164.06V36Z" fill="white"/>
</g>
<defs>
<linearGradient id="paint0_linear_1218_1300" x1="189" y1="-0.000224663" x2="104.636" y2="133.458" gradientUnits="userSpaceOnUse">
<stop stop-color="#976CF3"/>
<stop offset="0.878639" stop-color="#2B34D9"/>
</linearGradient>
</defs>
</svg>
