<svg width="12" height="12" viewBox="0 0 12 12" fill="none" xmlns="http://www.w3.org/2000/svg">
<g id="Shape">
<path d="M3.23274 10.7469V8.76606C3.23274 8.54253 3.48193 8.38359 3.72601 8.45145L6.33734 9.17751C6.65397 9.26555 6.69608 9.6415 6.40498 9.78137L3.79365 11.0361C3.54146 11.1573 3.23274 10.9981 3.23274 10.7469Z" fill="white"/>
<path d="M3.93872 7.47066C3.80327 7.59269 3.59946 7.63583 3.415 7.58151L0.631204 6.76175C-0.15601 6.51929 -0.223685 5.57075 0.522989 5.24496L10.6299 0.83516C11.3386 0.525962 12.1428 1.06846 11.9784 1.7448L10.2962 8.66504C10.179 9.147 9.60727 9.43268 9.07164 9.27688L5.20252 8.14891C4.94228 8.07304 4.8582 7.78827 5.04401 7.6121L8.16886 4.64964C8.37534 4.44382 8.5277 4.22748 8.29184 4.0473C8.05598 3.86711 7.74735 4.01947 7.54087 4.22529L3.93872 7.47066Z" fill="white"/>
</g>
</svg>
