<svg width="89" height="98" viewBox="0 0 89 98" fill="none" xmlns="http://www.w3.org/2000/svg">
<path id="Vector" d="M39.9961 1.16283C42.8113 -0.24481 46.1251 -0.244812 48.9403 1.16283L83.4085 18.3969C86.7964 20.0908 88.9364 23.5535 88.9364 27.3412V70.5591C88.9364 74.3503 86.7925 77.8155 83.3999 79.5077L48.9317 96.7004C46.1212 98.1023 42.8152 98.1023 40.0047 96.7004L5.53647 79.5077C2.1439 77.8155 0 74.3503 0 70.5591V27.3412C0 23.5535 2.14002 20.0908 5.52786 18.3969L39.9961 1.16283ZM67.3987 28.5145C71.7075 26.3688 71.7105 20.2225 67.4038 18.0726L47.0444 7.90922C45.4222 7.09939 43.5138 7.09842 41.8907 7.90659C37.6372 10.0245 37.6185 16.0864 41.8589 18.2305L62.1658 28.4984C63.8097 29.3296 65.7497 29.3356 67.3987 28.5145ZM41.9365 38.7105C43.5311 39.5065 45.4066 39.5091 47.0033 38.7174C51.2013 36.6361 51.2229 30.6559 47.0401 28.5443L26.5132 18.1818C24.8966 17.3657 22.9896 17.3605 21.3686 18.1677C17.1294 20.2784 17.1263 26.3253 21.3633 28.4404L41.9365 38.7105ZM21.3134 36.0933C14.6644 32.7688 6.84126 37.6038 6.84126 45.0376V66.29C6.84126 70.0777 8.98129 73.5403 12.3691 75.2343L26.5754 82.3374C33.2244 85.6619 41.0476 80.827 41.0476 73.3931V52.1408C41.0476 48.3531 38.9075 44.8904 35.5197 43.1965L21.3134 36.0933ZM47.8888 73.3931C47.8888 80.827 55.712 85.6619 62.361 82.3374L76.5673 75.2343C79.9551 73.5403 82.0951 70.0777 82.0951 66.29V45.0376C82.0951 37.6038 74.272 32.7688 67.623 36.0933L53.4167 43.1965C50.0289 44.8904 47.8888 48.3531 47.8888 52.1408V73.3931Z" fill="#006FF5"/>
</svg>
