<svg width="89" height="101" viewBox="0 0 89 101" fill="none" xmlns="http://www.w3.org/2000/svg">
<path id="Vector" d="M88.8889 78.7045V23.149C88.8889 11.1045 68.5389 0.926758 44.4444 0.926758C20.35 0.926758 0 11.1045 0 23.149V78.7045C0 90.749 20.35 100.927 44.4444 100.927C68.5389 100.927 88.8889 90.749 88.8889 78.7045ZM44.4444 12.0379C62.4605 12.0379 74.254 18.5006 77.112 21.9048C77.7091 22.616 77.7148 23.6156 77.1246 24.3326C74.2889 27.7782 62.4872 34.2601 44.4444 34.2601C26.4284 34.2601 14.6349 27.7973 11.7769 24.3932C11.1798 23.6819 11.1741 22.6824 11.7642 21.9653C14.6 18.5198 26.4017 12.0379 44.4444 12.0379ZM11.1111 50.9268C11.1111 45.0062 17.6954 41.0271 23.3996 42.613C29.7015 44.3652 36.8841 45.3712 44.4444 45.3712C52.0176 45.3712 59.2118 44.3617 65.5214 42.6041C71.2105 41.0193 77.7778 44.9877 77.7778 50.8934C77.3944 53.6656 64.95 62.0379 44.4444 62.0379C23.9389 62.0379 11.4944 53.6656 11.1111 50.9268ZM11.1111 78.7045C11.1111 72.7839 17.6954 68.8049 23.3996 70.3908C29.7015 72.1429 36.8841 73.149 44.4444 73.149C52.0176 73.149 59.2118 72.1395 65.5214 70.3819C71.2105 68.7971 77.7778 72.7655 77.7778 78.6712C77.3944 81.4434 64.95 89.8156 44.4444 89.8156C23.9389 89.8156 11.4944 81.4434 11.1111 78.7045Z" fill="#006FF5"/>
</svg>
