<svg width="270" height="77" viewBox="0 0 270 77" fill="none" xmlns="http://www.w3.org/2000/svg">
<path d="M93.4879 27.4382C93.6904 27.4382 93.8591 27.4494 93.9941 27.4719C94.1291 27.4831 94.2472 27.5167 94.3484 27.5728C94.4609 27.6176 94.5678 27.6905 94.669 27.7914C94.7703 27.8811 94.8828 28.0045 95.0065 28.1614L107.813 44.4253C107.768 44.0328 107.735 43.6516 107.712 43.2816C107.701 42.9004 107.695 42.5472 107.695 42.222V27.4382H111.694V51.7583H109.349C108.989 51.7583 108.691 51.7022 108.455 51.5901C108.218 51.478 107.988 51.2762 107.763 50.9846L95.0065 34.7881C95.0402 35.1469 95.0627 35.5057 95.074 35.8645C95.0965 36.2121 95.1077 36.5316 95.1077 36.8232V51.7583H91.1087V27.4382H93.4879Z" fill="white"/>
<path d="M123.535 34.2331C124.626 34.2331 125.627 34.4068 126.538 34.7544C127.461 35.102 128.254 35.6122 128.917 36.285C129.581 36.9465 130.098 37.765 130.47 38.7405C130.841 39.7048 131.027 40.8092 131.027 42.0538C131.027 42.3678 131.01 42.6313 130.976 42.8443C130.953 43.0461 130.903 43.2087 130.824 43.3321C130.757 43.4442 130.661 43.5283 130.537 43.5843C130.413 43.6292 130.256 43.6516 130.065 43.6516H119.367C119.491 45.4232 119.969 46.7239 120.801 47.5536C121.634 48.3833 122.736 48.7982 124.108 48.7982C124.783 48.7982 125.363 48.7197 125.846 48.5627C126.341 48.4058 126.769 48.232 127.129 48.0413C127.5 47.8507 127.821 47.6769 128.091 47.52C128.372 47.363 128.642 47.2845 128.9 47.2845C129.069 47.2845 129.215 47.3181 129.339 47.3854C129.463 47.4527 129.57 47.548 129.66 47.6713L130.875 49.185C130.413 49.7232 129.896 50.1773 129.322 50.5474C128.749 50.9062 128.147 51.1977 127.517 51.4219C126.898 51.635 126.263 51.7863 125.61 51.876C124.969 51.9657 124.345 52.0106 123.737 52.0106C122.534 52.0106 121.414 51.8144 120.379 51.4219C119.344 51.0183 118.445 50.4296 117.68 49.6559C116.915 48.8711 116.313 47.9068 115.874 46.7631C115.435 45.6082 115.216 44.2739 115.216 42.7602C115.216 41.5829 115.407 40.4785 115.79 39.4469C116.172 38.4041 116.718 37.5015 117.427 36.7391C118.146 35.9654 119.018 35.3543 120.042 34.9058C121.077 34.4573 122.241 34.2331 123.535 34.2331ZM123.619 37.21C122.404 37.21 121.454 37.552 120.767 38.2359C120.081 38.9199 119.643 39.8898 119.451 41.1456H127.281C127.281 40.6074 127.208 40.1028 127.061 39.6319C126.915 39.1498 126.69 38.7293 126.386 38.3705C126.083 38.0117 125.7 37.7314 125.239 37.5296C124.778 37.3165 124.238 37.21 123.619 37.21Z" fill="white"/>
<path d="M137.486 42.8611L131.8 34.5022H135.815C136.119 34.5022 136.344 34.547 136.49 34.6367C136.637 34.7152 136.766 34.8497 136.878 35.0404L140.506 40.8092C140.562 40.6186 140.63 40.428 140.709 40.2374C140.799 40.0468 140.906 39.8562 141.029 39.6655L143.948 35.1245C144.083 34.9114 144.224 34.7544 144.37 34.6535C144.516 34.5526 144.696 34.5022 144.91 34.5022H148.74L143.037 42.6761L148.977 51.7583H144.961C144.657 51.7583 144.41 51.6798 144.218 51.5228C144.038 51.3659 143.887 51.1865 143.763 50.9846L140.084 44.9803C139.983 45.384 139.843 45.7203 139.663 45.9894L136.423 50.9846C136.299 51.1753 136.147 51.3547 135.967 51.5228C135.787 51.6798 135.562 51.7583 135.292 51.7583H131.563L137.486 42.8611Z" fill="white"/>
<path d="M157.297 52.0274C155.801 52.0274 154.647 51.6069 153.838 50.766C153.028 49.9138 152.623 48.7421 152.623 47.2509V37.6136H150.868C150.643 37.6136 150.446 37.5408 150.277 37.395C150.12 37.2492 150.041 37.0306 150.041 36.7391V35.0908L152.825 34.6367L153.703 29.9274C153.748 29.7032 153.849 29.5294 154.006 29.406C154.175 29.2827 154.383 29.221 154.631 29.221H156.79V34.6535H161.346V37.6136H156.79V46.9649C156.79 47.5031 156.925 47.9236 157.195 48.2263C157.465 48.5291 157.825 48.6805 158.275 48.6805C158.534 48.6805 158.748 48.6524 158.916 48.5964C159.096 48.5291 159.248 48.4618 159.372 48.3945C159.507 48.3273 159.625 48.2656 159.726 48.2095C159.828 48.1423 159.929 48.1086 160.03 48.1086C160.154 48.1086 160.255 48.1423 160.334 48.2095C160.413 48.2656 160.497 48.3553 160.587 48.4786L161.836 50.4969C161.228 51.0015 160.531 51.3827 159.743 51.6406C158.956 51.8985 158.14 52.0274 157.297 52.0274Z" fill="white"/>
<path d="M184.499 31.8616C184.375 32.1083 184.229 32.2821 184.061 32.383C183.903 32.4839 183.712 32.5343 183.487 32.5343C183.262 32.5343 183.009 32.4503 182.728 32.2821C182.446 32.1027 182.114 31.9064 181.732 31.6934C181.35 31.4804 180.9 31.2898 180.382 31.1216C179.876 30.9422 179.274 30.8525 178.577 30.8525C177.947 30.8525 177.396 30.931 176.923 31.0879C176.462 31.2337 176.068 31.4411 175.742 31.7102C175.427 31.9793 175.191 32.3045 175.033 32.6857C174.876 33.0557 174.797 33.465 174.797 33.9135C174.797 34.4853 174.954 34.9619 175.269 35.3431C175.596 35.7243 176.023 36.0495 176.552 36.3186C177.081 36.5877 177.682 36.8288 178.357 37.0418C179.032 37.2548 179.718 37.4847 180.416 37.7314C181.125 37.9668 181.816 38.2472 182.491 38.5723C183.166 38.8863 183.768 39.2899 184.297 39.7833C184.825 40.2654 185.247 40.8597 185.562 41.5661C185.888 42.2725 186.052 43.1302 186.052 44.1394C186.052 45.2382 185.86 46.2698 185.478 47.234C185.107 48.1871 184.555 49.0224 183.824 49.74C183.104 50.4464 182.221 51.0071 181.175 51.4219C180.129 51.8256 178.931 52.0274 177.581 52.0274C176.805 52.0274 176.04 51.9489 175.286 51.792C174.533 51.6462 173.807 51.4331 173.11 51.1528C172.423 50.8725 171.777 50.5361 171.169 50.1437C170.573 49.7513 170.039 49.314 169.566 48.8318L170.882 46.6622C171.006 46.5052 171.152 46.3763 171.321 46.2754C171.501 46.1632 171.698 46.1072 171.912 46.1072C172.193 46.1072 172.497 46.2249 172.823 46.4604C173.149 46.6846 173.531 46.9369 173.97 47.2172C174.42 47.4975 174.943 47.7554 175.539 47.9909C176.147 48.2151 176.872 48.3273 177.716 48.3273C179.01 48.3273 180.011 48.0245 180.72 47.419C181.428 46.8024 181.783 45.9222 181.783 44.7785C181.783 44.1394 181.619 43.618 181.293 43.2143C180.978 42.8107 180.556 42.4743 180.028 42.2052C179.499 41.9249 178.897 41.6894 178.222 41.4988C177.547 41.3082 176.861 41.1008 176.164 40.8765C175.466 40.6523 174.78 40.3832 174.105 40.0692C173.43 39.7552 172.828 39.346 172.3 38.8414C171.771 38.3369 171.344 37.709 171.017 36.9577C170.702 36.1953 170.545 35.259 170.545 34.149C170.545 33.2632 170.719 32.3998 171.068 31.5589C171.428 30.7179 171.945 29.9723 172.62 29.3219C173.307 28.6716 174.145 28.1502 175.134 27.7578C176.124 27.3654 177.255 27.1691 178.526 27.1691C179.966 27.1691 181.293 27.3934 182.508 27.8419C183.723 28.2904 184.758 28.9183 185.613 29.7256L184.499 31.8616Z" fill="white"/>
<path d="M187.17 34.5022H190.477C190.792 34.5022 191.056 34.575 191.27 34.7208C191.484 34.8666 191.619 35.0516 191.675 35.2758L194.155 44.4926C194.29 44.9971 194.397 45.4905 194.476 45.9726C194.566 46.4548 194.65 46.9369 194.729 47.419C194.853 46.9369 194.982 46.4548 195.117 45.9726C195.263 45.4905 195.415 44.9971 195.573 44.4926L198.441 35.2422C198.509 35.0179 198.644 34.8329 198.846 34.6872C199.049 34.5414 199.285 34.4685 199.555 34.4685H201.394C201.698 34.4685 201.951 34.5414 202.153 34.6872C202.356 34.8329 202.491 35.0179 202.558 35.2422L205.393 44.6608C205.539 45.1429 205.669 45.6138 205.781 46.0735C205.905 46.522 206.023 46.9761 206.135 47.4359C206.214 46.9537 206.299 46.4716 206.389 45.9894C206.49 45.5073 206.614 45.0083 206.76 44.4926L209.325 35.2758C209.381 35.0516 209.516 34.8666 209.729 34.7208C209.943 34.575 210.191 34.5022 210.472 34.5022H213.627L208.143 51.7583H204.786C204.426 51.7583 204.167 51.5116 204.009 51.0183L200.888 41.0447C200.787 40.7195 200.691 40.3944 200.601 40.0692C200.522 39.7328 200.455 39.4021 200.398 39.0769C200.331 39.4133 200.258 39.7496 200.179 40.086C200.1 40.4112 200.01 40.742 199.909 41.0783L196.754 51.0183C196.596 51.5116 196.293 51.7583 195.843 51.7583H192.654L187.17 34.5022Z" fill="white"/>
<path d="M220.411 34.5022V51.7583H216.243V34.5022H220.411ZM221.035 29.4733C221.035 29.8321 220.962 30.1685 220.816 30.4824C220.67 30.7964 220.473 31.0711 220.225 31.3066C219.989 31.542 219.708 31.7327 219.382 31.8784C219.055 32.013 218.707 32.0802 218.335 32.0802C217.976 32.0802 217.632 32.013 217.306 31.8784C216.991 31.7327 216.716 31.542 216.479 31.3066C216.243 31.0711 216.052 30.7964 215.906 30.4824C215.771 30.1685 215.703 29.8321 215.703 29.4733C215.703 29.1033 215.771 28.7557 215.906 28.4305C216.052 28.1054 216.243 27.8251 216.479 27.5896C216.716 27.3541 216.991 27.1691 217.306 27.0346C217.632 26.8888 217.976 26.8159 218.335 26.8159C218.707 26.8159 219.055 26.8888 219.382 27.0346C219.708 27.1691 219.989 27.3541 220.225 27.5896C220.473 27.8251 220.67 28.1054 220.816 28.4305C220.962 28.7557 221.035 29.1033 221.035 29.4733Z" fill="white"/>
<path d="M230.821 52.0274C229.325 52.0274 228.172 51.6069 227.362 50.766C226.552 49.9138 226.147 48.7421 226.147 47.2509V37.6136H224.392C224.168 37.6136 223.971 37.5408 223.802 37.395C223.644 37.2492 223.566 37.0306 223.566 36.7391V35.0908L226.35 34.6367L227.227 29.9274C227.272 29.7032 227.373 29.5294 227.531 29.406C227.7 29.2827 227.908 29.221 228.155 29.221H230.315V34.6535H234.871V37.6136H230.315V46.9649C230.315 47.5031 230.45 47.9236 230.72 48.2263C230.99 48.5291 231.35 48.6805 231.8 48.6805C232.059 48.6805 232.272 48.6524 232.441 48.5964C232.621 48.5291 232.773 48.4618 232.897 48.3945C233.032 48.3273 233.15 48.2656 233.251 48.2095C233.352 48.1423 233.454 48.1086 233.555 48.1086C233.679 48.1086 233.78 48.1423 233.858 48.2095C233.937 48.2656 234.022 48.3553 234.112 48.4786L235.36 50.4969C234.753 51.0015 234.055 51.3827 233.268 51.6406C232.48 51.8985 231.665 52.0274 230.821 52.0274Z" fill="white"/>
<path d="M250.351 38.1519C250.227 38.3088 250.104 38.4322 249.98 38.5219C249.868 38.6116 249.699 38.6564 249.474 38.6564C249.26 38.6564 249.052 38.5947 248.85 38.4714C248.647 38.3369 248.405 38.1911 248.124 38.0341C247.843 37.8659 247.505 37.7202 247.112 37.5968C246.729 37.4623 246.251 37.395 245.677 37.395C244.946 37.395 244.305 37.5296 243.754 37.7987C243.203 38.0565 242.741 38.4322 242.37 38.9255C242.01 39.4189 241.74 40.0187 241.56 40.7251C241.38 41.4203 241.29 42.2108 241.29 43.0966C241.29 44.016 241.386 44.8345 241.577 45.5522C241.78 46.2698 242.066 46.8752 242.438 47.3686C242.809 47.8507 243.259 48.2207 243.787 48.4786C244.316 48.7253 244.912 48.8486 245.576 48.8486C246.24 48.8486 246.774 48.7702 247.179 48.6132C247.595 48.445 247.944 48.2656 248.225 48.075C248.506 47.8731 248.748 47.6938 248.951 47.5368C249.164 47.3686 249.401 47.2845 249.659 47.2845C249.997 47.2845 250.25 47.4134 250.419 47.6713L251.617 49.185C251.156 49.7232 250.655 50.1773 250.115 50.5474C249.575 50.9062 249.013 51.1977 248.428 51.4219C247.854 51.635 247.258 51.7863 246.639 51.876C246.02 51.9657 245.407 52.0106 244.8 52.0106C243.731 52.0106 242.724 51.8144 241.78 51.4219C240.835 51.0183 240.008 50.4352 239.299 49.6728C238.602 48.9103 238.045 47.9797 237.629 46.8808C237.224 45.7708 237.021 44.5094 237.021 43.0966C237.021 41.8296 237.201 40.6579 237.561 39.5815C237.932 38.4938 238.472 37.5576 239.181 36.7727C239.89 35.9766 240.767 35.3543 241.813 34.9058C242.859 34.4573 244.063 34.2331 245.424 34.2331C246.718 34.2331 247.848 34.4405 248.816 34.8554C249.794 35.2702 250.672 35.8645 251.448 36.6382L250.351 38.1519Z" fill="white"/>
<path d="M254.268 51.7583V26.7655H258.436V36.3691C259.111 35.7299 259.853 35.2142 260.663 34.8217C261.473 34.4293 262.423 34.2331 263.515 34.2331C264.46 34.2331 265.298 34.3956 266.029 34.7208C266.76 35.0348 267.367 35.4833 267.851 36.0663C268.346 36.6382 268.717 37.3277 268.965 38.135C269.223 38.9311 269.353 39.8113 269.353 40.7756V51.7583H265.185V40.7756C265.185 39.7216 264.938 38.9087 264.443 38.3369C263.959 37.7538 263.228 37.4623 262.249 37.4623C261.529 37.4623 260.854 37.6249 260.224 37.95C259.594 38.2752 258.998 38.7181 258.436 39.2787V51.7583H254.268Z" fill="white"/>
<path d="M100.074 68.9363L98.2577 64.1278C98.111 63.7561 97.9612 63.2837 97.8083 62.7109C97.7411 62.9973 97.6677 63.2624 97.5882 63.5062C97.5087 63.7439 97.4354 63.9541 97.3681 64.137L95.5522 68.9363H100.074ZM104.137 73.8728H102.477C102.287 73.8728 102.134 73.8271 102.018 73.7357C101.902 73.6382 101.813 73.5193 101.752 73.3792L100.651 70.4721H94.9652L93.8647 73.3792C93.8158 73.5011 93.7301 73.6138 93.6079 73.7174C93.4856 73.821 93.3327 73.8728 93.1493 73.8728H91.4893L96.7261 60.7088H98.8997L104.137 73.8728Z" fill="#FF9212"/>
<path d="M129.165 70.9383C129.281 70.9383 129.382 70.9841 129.468 71.0755L130.32 71.9988C129.782 72.6448 129.122 73.1445 128.339 73.498C127.557 73.8454 126.621 74.0191 125.533 74.0191C124.567 74.0191 123.693 73.8545 122.91 73.5254C122.134 73.1902 121.47 72.7271 120.92 72.1359C120.37 71.5387 119.945 70.8287 119.645 70.0059C119.352 69.1832 119.205 68.2781 119.205 67.2908C119.205 66.3035 119.361 65.3985 119.673 64.5758C119.991 63.7469 120.434 63.0369 121.002 62.4458C121.577 61.8485 122.262 61.3853 123.057 61.0562C123.858 60.7271 124.738 60.5626 125.698 60.5626C126.652 60.5626 127.493 60.718 128.22 61.0288C128.954 61.3335 129.59 61.7419 130.128 62.2538L129.422 63.2502C129.373 63.3173 129.315 63.3752 129.247 63.4239C129.18 63.4727 129.088 63.497 128.972 63.497C128.85 63.497 128.709 63.4422 128.55 63.3325C128.398 63.2167 128.199 63.0918 127.954 62.9577C127.716 62.8175 127.413 62.6926 127.046 62.5829C126.686 62.4671 126.233 62.4092 125.689 62.4092C125.059 62.4092 124.481 62.5189 123.956 62.7383C123.43 62.9577 122.977 63.2776 122.598 63.6982C122.219 64.1187 121.923 64.6306 121.709 65.234C121.501 65.8373 121.397 66.5229 121.397 67.2908C121.397 68.0648 121.507 68.7565 121.727 69.366C121.947 69.9693 122.25 70.4813 122.635 70.9018C123.02 71.3162 123.473 71.6331 123.992 71.8525C124.512 72.0719 125.071 72.1816 125.671 72.1816C126.037 72.1816 126.365 72.1633 126.652 72.1268C126.945 72.0841 127.214 72.0201 127.459 71.9348C127.704 71.8434 127.933 71.7306 128.147 71.5965C128.367 71.4625 128.584 71.2979 128.798 71.1029C128.92 70.9932 129.043 70.9383 129.165 70.9383Z" fill="#FF9212"/>
<path d="M153.837 68.9363L152.021 64.1278C151.874 63.7561 151.724 63.2837 151.572 62.7109C151.504 62.9973 151.431 63.2624 151.351 63.5062C151.272 63.7439 151.199 63.9541 151.131 64.137L149.315 68.9363H153.837ZM157.9 73.8728H156.24C156.05 73.8728 155.897 73.8271 155.781 73.7357C155.665 73.6382 155.576 73.5193 155.515 73.3792L154.415 70.4721H148.728L147.628 73.3792C147.579 73.5011 147.493 73.6138 147.371 73.7174C147.249 73.821 147.096 73.8728 146.913 73.8728H145.253L150.489 60.7088H152.663L157.9 73.8728Z" fill="#FF9212"/>
<path d="M185.708 67.2908C185.708 68.2659 185.549 69.1588 185.231 69.9693C184.913 70.7738 184.463 71.4655 183.883 72.0445C183.308 72.6235 182.614 73.0744 181.801 73.3975C180.994 73.7144 180.095 73.8728 179.104 73.8728H174.115V60.7088H179.104C180.095 60.7088 180.994 60.8703 181.801 61.1934C182.614 61.5103 183.308 61.9582 183.883 62.5372C184.463 63.1161 184.913 63.8109 185.231 64.6215C185.549 65.4259 185.708 66.3157 185.708 67.2908ZM183.516 67.2908C183.516 66.5351 183.412 65.8556 183.204 65.2522C183.002 64.6489 182.709 64.14 182.323 63.7256C181.944 63.3112 181.483 62.9943 180.939 62.7749C180.394 62.5494 179.783 62.4366 179.104 62.4366H176.27V72.1451H179.104C179.783 72.1451 180.394 72.0353 180.939 71.8159C181.483 71.5965 181.944 71.2796 182.323 70.8652C182.709 70.4447 183.002 69.9358 183.204 69.3386C183.412 68.7352 183.516 68.0526 183.516 67.2908Z" fill="#FF9212"/>
<path d="M210.988 72.1451L210.979 73.8728H202.743V60.7088H210.979V62.4366H204.898V66.4041H209.759V68.077H204.898V72.1451H210.988Z" fill="#FF9212"/>
<path d="M242.036 60.7088V73.8728H240.147V64.85C240.147 64.7037 240.15 64.5453 240.156 64.3746C240.168 64.1979 240.184 64.0212 240.202 63.8444L235.956 71.6605C235.791 71.9835 235.537 72.1451 235.194 72.1451H234.892C234.543 72.1451 234.29 71.9835 234.131 71.6605L229.82 63.8261C229.838 64.0029 229.851 64.1796 229.857 64.3564C229.869 64.5331 229.875 64.6976 229.875 64.85V73.8728H227.986V60.7088H229.591C229.78 60.7088 229.927 60.7271 230.031 60.7637C230.135 60.7942 230.23 60.8947 230.315 61.0654L234.552 68.7169C234.644 68.8937 234.73 69.0765 234.809 69.2654C234.895 69.4483 234.971 69.6372 235.039 69.8322C235.112 69.6372 235.188 69.4452 235.268 69.2563C235.353 69.0613 235.442 68.8754 235.534 68.6986L239.707 61.0654C239.792 60.8947 239.887 60.7942 239.991 60.7637C240.095 60.7271 240.242 60.7088 240.431 60.7088H242.036Z" fill="#FF9212"/>
<path d="M265.176 68.7169V73.8728H263.039V68.7169L258.215 60.7088H260.095C260.285 60.7088 260.434 60.7546 260.544 60.846C260.654 60.9374 260.746 61.0532 260.82 61.1934L263.525 65.9104C263.647 66.1481 263.757 66.3736 263.855 66.5869C263.959 66.8002 264.051 67.0105 264.13 67.2177C264.198 67.0044 264.28 66.7941 264.378 66.5869C264.476 66.3736 264.586 66.1481 264.708 65.9104L267.395 61.1934C267.456 61.0715 267.545 60.9618 267.661 60.8643C267.777 60.7606 267.927 60.7088 268.111 60.7088H270L265.176 68.7169Z" fill="#FF9212"/>
<path d="M66.266 43.2231L61.5913 31.1748C61.5913 31.1748 60.1889 27.7356 54.2899 26.3377C49.9193 25.4212 45.4784 24.8768 41.0152 24.7106L32.994 24.8511C32.6825 24.8558 32.377 24.7655 32.1184 24.5924C31.8598 24.4192 31.6605 24.1714 31.5471 23.8822L29.7811 19.341C29.7458 19.2501 29.6852 19.1712 29.6064 19.1136C29.5276 19.056 29.4339 19.0221 29.3363 19.0158C29.2388 19.0096 29.1415 19.0314 29.056 19.0785C28.9704 19.1256 28.9002 19.1961 28.8536 19.2818L19.3335 36.8033C19.2955 36.8689 19.2726 36.9421 19.2665 37.0176C19.2604 37.0931 19.2713 37.169 19.2983 37.2398C19.3253 37.3107 19.3677 37.3746 19.4226 37.427C19.4775 37.4794 19.5434 37.519 19.6155 37.5429L38.6259 44.1994C38.719 44.2323 38.8196 44.2377 38.9156 44.215C39.0116 44.1922 39.099 44.1423 39.1672 44.0711C39.2354 44 39.2816 43.9108 39.3001 43.8141C39.3186 43.7175 39.3086 43.6175 39.2715 43.5264L38.5295 41.7439C38.4538 41.5522 38.4274 41.3446 38.4527 41.1402C38.478 40.9357 38.5542 40.7407 38.6745 40.5731C38.7947 40.4055 38.955 40.2705 39.141 40.1805C39.3269 40.0905 39.5325 40.0482 39.739 40.0576L58.7271 40.8416C58.7271 40.8416 59.202 40.9599 58.8162 41.5442C58.4303 42.1285 50.6985 53.3781 47.8418 57.5569C47.7817 57.6498 47.7534 57.7597 47.7614 57.87C47.7693 57.9803 47.813 58.085 47.8858 58.1684C47.9586 58.2519 48.0566 58.3095 48.1651 58.3326C48.2736 58.3557 48.3867 58.343 48.4873 58.2965C51.7596 56.7581 59.0091 53.0674 62.9344 48.9552C67.0526 44.7024 66.266 43.2231 66.266 43.2231Z" fill="#006FF5"/>
<path d="M0.0633902 52.7938L4.75293 64.8421C4.75293 64.8421 6.16276 68.2813 12.0544 69.6792C16.4274 70.5959 20.8708 71.1403 25.3364 71.3064L33.3502 71.1732C33.6693 71.1539 33.9861 71.2377 34.2535 71.4123C34.5209 71.5869 34.7245 71.8428 34.8342 72.1421L36.6002 76.676C36.6369 76.7665 36.6985 76.8449 36.7779 76.902C36.8573 76.9592 36.9513 76.9928 37.049 76.999C37.1468 77.0051 37.2443 76.9837 37.3303 76.937C37.4163 76.8903 37.4873 76.8203 37.5352 76.7351L47.033 59.2136C47.071 59.148 47.0939 59.0748 47.1 58.9993C47.1061 58.9238 47.0952 58.8479 47.0682 58.7771C47.0413 58.7062 46.9988 58.6423 46.9439 58.5899C46.889 58.5375 46.8231 58.4979 46.751 58.474L27.7035 51.7731C27.6107 51.7435 27.5114 51.7404 27.417 51.7643C27.3226 51.7882 27.2368 51.8382 27.1695 51.9083C27.1021 51.9785 27.056 52.0662 27.0363 52.1613C27.0165 52.2564 27.024 52.3551 27.0579 52.4462L27.7628 54.2286C27.8382 54.4197 27.8647 54.6266 27.8397 54.8305C27.8147 55.0343 27.7391 55.2287 27.6198 55.3962C27.5005 55.5636 27.3411 55.6987 27.1562 55.7893C26.9713 55.8799 26.7666 55.9231 26.5608 55.9149L7.57259 55.1605C7.57259 55.1605 7.09028 55.0422 7.48355 54.4653C7.87681 53.8884 15.5864 42.6093 18.4505 38.46C18.5089 38.3677 18.536 38.2591 18.5279 38.1503C18.5197 38.0415 18.4768 37.9381 18.4055 37.8553C18.3341 37.7726 18.238 37.7148 18.1312 37.6906C18.0245 37.6663 17.9127 37.6767 17.8124 37.7204C14.5401 39.2366 7.2832 42.8977 3.35794 47.0396C-0.737987 51.3145 0.0633902 52.7938 0.0633902 52.7938Z" fill="#002F68"/>
<path d="M49.7191 12.3368C49.7191 12.3368 55.9891 11.7525 58.3265 9.50406C60.6638 7.25563 61.0793 5.50274 62.0811 0C62.0811 0 62.6672 7.24823 65.0491 9.00112C65.0491 9.00112 66.5331 10.9167 74.2427 12.3368C74.2427 12.3368 67.891 13.0024 65.7169 15.1695C65.7169 15.1695 62.5411 17.3884 62.1182 24.5035C62.1182 24.5035 61.8733 18.0022 58.7791 15.5837C56.1865 13.5611 53.0102 12.4228 49.7191 12.3368Z" fill="#FF9212"/>
</svg>
