<svg width="132" height="101" viewBox="0 0 132 101" fill="none" xmlns="http://www.w3.org/2000/svg">
<path id="Vector" d="M116.608 2.56729C115.201 1.65719 113.592 1.1066 111.923 0.963918C110.253 0.821233 108.574 1.09082 107.033 1.74899L56.5444 21.6336C55.3491 22.1201 54.0708 22.3702 52.7802 22.3701H20.4575C17.7446 22.3701 15.1429 23.4478 13.2247 25.366C11.3064 27.2843 10.2287 29.886 10.2287 32.5988C10.2287 33.0508 9.86237 33.4171 9.41043 33.4171H5.11437C2.28978 33.4171 0 35.7069 0 38.5315V52.8517C0 55.6763 2.28978 57.9661 5.11437 57.9661H9.16494C9.75246 57.9661 10.2287 58.4424 10.2287 59.0299C10.2928 61.6999 11.3987 64.239 13.3101 66.1045C13.6872 66.4726 14.0898 66.8087 14.5136 67.1111C17.6651 69.3596 21.5113 71.2474 23.163 74.7488L32.7319 95.035C33.5631 96.7873 34.8716 98.2697 36.5073 99.3119C38.1429 100.354 40.0393 100.914 41.9787 100.927H47.134C49.8326 100.905 52.4134 99.818 54.314 97.9021C56.2146 95.9861 57.281 93.3967 57.2809 90.698V84.7609C57.2809 77.6875 64.4239 72.8499 70.9922 75.4751L107.033 89.8797C108.257 90.3667 109.562 90.6166 110.879 90.6162C112.923 90.5832 114.913 89.9579 116.608 88.8159C117.953 87.9072 119.064 86.691 119.846 85.2681C120.629 83.8451 121.061 82.2563 121.108 80.633V10.9958C121.101 9.33066 120.687 7.69255 119.902 6.22372C119.118 4.75489 117.987 3.49974 116.608 2.56729ZM37.0522 32.5988C42.575 32.5988 47.0522 37.076 47.0522 42.5988V49.0299C47.0522 54.5527 42.575 59.0299 37.0522 59.0299H30.4575C24.9346 59.0299 20.4575 54.5527 20.4575 49.0299V42.5988C20.4575 37.076 24.9346 32.5988 30.4575 32.5988H37.0522ZM47.0522 87.5513C47.0522 89.2892 45.6433 90.698 43.9055 90.698C42.6805 90.698 41.5669 89.9872 41.0512 88.8761L35.7431 77.4399C33.9187 73.5094 36.7888 69.0131 41.122 69.0131C44.3972 69.0131 47.0522 71.6681 47.0522 74.9432V87.5513ZM60.3086 60.2573C58.5774 59.3726 57.2809 57.7028 57.2809 55.7587V35.1886C57.2809 33.3471 58.5948 31.7995 60.3086 31.1259L97.1811 16.4485C103.747 13.8347 110.879 18.672 110.879 25.7395V65.6437C110.879 72.7112 103.747 77.5485 97.1811 74.9347L60.3086 60.2573ZM128.586 38.4588C125.449 35.3216 121.354 39.0596 121.354 43.4963V47.8869C121.354 52.3237 125.449 56.0617 128.586 52.9244C130.505 51.0062 131.582 48.4044 131.582 45.6916C131.582 42.9788 130.505 40.3771 128.586 38.4588Z" fill="#006FF5"/>
</svg>
