<svg width="100" height="84" viewBox="0 0 100 84" fill="none" xmlns="http://www.w3.org/2000/svg">
<path id="Vector" d="M10 83.1185C4.47716 83.1185 0 78.6414 0 73.1185V70.3332C0 67.8217 0.64688 65.4625 1.94064 63.2555C3.2344 61.0485 5.02283 59.3742 7.30594 58.2327C11.1872 56.254 15.5632 54.5797 20.4338 53.2099C25.3044 51.84 30.6697 51.1551 36.5297 51.1551C42.3896 51.1551 47.7549 51.84 52.6256 53.2099C57.4962 54.5797 61.8721 56.254 65.7534 58.2327C68.0365 59.3742 69.825 61.0485 71.1187 63.2555C72.4125 65.4625 73.0593 67.8217 73.0593 70.3332V73.1185C73.0593 78.6414 68.5822 83.1185 63.0594 83.1185H10ZM9.13242 70.3332C9.13242 72.3506 10.7679 73.9861 12.7854 73.9861H60.274C62.2915 73.9861 63.9269 72.3506 63.9269 70.3332C63.9269 69.496 63.7169 68.735 63.2968 68.05C62.8767 67.3651 62.3257 66.8324 61.6438 66.4519C58.9041 65.082 55.3836 63.7121 51.0822 62.3423C46.7808 60.9724 41.93 60.2875 36.5297 60.2875C31.1263 60.2875 26.274 60.9724 21.9726 62.3423C17.6712 63.7121 14.1522 65.082 11.4155 66.4519C10.7306 66.8324 10.1796 67.3651 9.76256 68.05C9.34551 68.735 9.13546 69.496 9.13242 70.3332ZM36.5297 46.5889C31.5068 46.5889 27.207 44.8004 23.6301 41.2236C20.3272 37.9207 18.5493 34.0013 18.2963 29.4655C18.2612 28.836 17.7537 28.324 17.1233 28.324C16.4384 28.324 15.8874 28.114 15.4703 27.6939C15.0533 27.2738 14.8432 26.7228 14.8402 26.0409C14.8402 25.356 15.0502 24.8035 15.4703 24.3834C15.8904 23.9633 16.4414 23.7548 17.1233 23.7578C17.7537 23.7578 18.2612 23.2461 18.2965 22.6166C18.4635 19.645 19.2901 16.9432 20.7763 14.5112C21.6743 13.0417 22.7256 11.7364 23.9301 10.5954C25.3261 9.27289 27.3973 10.4193 27.3973 12.3423C27.3973 13.0272 27.6073 13.5797 28.0274 13.9998C28.4475 14.4199 28.9985 14.6284 29.6804 14.6254C30.3653 14.6254 30.9178 14.4153 31.3379 13.9952C31.758 13.5752 31.9665 13.0242 31.9635 12.3423V8.41009C31.9635 7.07705 32.8145 5.86224 34.1324 5.66192C34.8935 5.54624 35.6925 5.48992 36.5297 5.49297C37.3668 5.49297 38.1659 5.55081 38.9269 5.66648C40.2431 5.86654 41.0959 7.07764 41.0959 8.40892V12.3423C41.0959 13.0272 41.3059 13.5797 41.726 13.9998C42.1461 14.4199 42.6971 14.6284 43.379 14.6254C44.0639 14.6254 44.6164 14.4153 45.0365 13.9952C45.4566 13.5752 45.6651 13.0242 45.6621 12.3423C45.6621 10.4193 47.7332 9.27289 49.1293 10.5954C50.3338 11.7364 51.3851 13.0417 52.2831 14.5112C53.7693 16.9432 54.5959 19.645 54.7628 22.6166C54.7982 23.2461 55.3056 23.7578 55.9361 23.7578C56.621 23.7578 57.1735 23.9678 57.5936 24.3879C58.0137 24.808 58.2222 25.359 58.2192 26.0409C58.2192 26.7258 58.0091 27.2784 57.589 27.6984C57.1689 28.1185 56.618 28.3271 55.9361 28.324C55.3056 28.324 54.7981 28.836 54.763 29.4655C54.5101 34.0013 52.7321 37.9207 49.4292 41.2236C45.8524 44.8004 41.5525 46.5889 36.5297 46.5889ZM36.5297 37.4564C39.0411 37.4564 41.1918 36.5615 42.9817 34.7715C45.7858 31.9674 42.4499 28.324 38.4844 28.324H34.5805C30.6133 28.324 27.277 31.9709 30.0822 34.7761C31.8721 36.566 34.0213 37.4595 36.5297 37.4564ZM72.8212 55.7213C71.6321 55.7213 70.6084 54.882 70.3752 53.7161L70.3677 53.6784C70.1968 52.8239 69.5725 52.1447 68.7808 51.7806C68.7694 51.7754 68.7579 51.77 68.7465 51.7646C67.9488 51.3872 67.0519 51.1153 66.2209 51.4121C65.1609 51.7907 63.9827 51.3467 63.4361 50.3628L63.1582 49.8627C62.5385 48.7472 62.7679 47.352 63.7121 46.4936C64.2851 45.9726 64.6119 45.2341 64.6119 44.4596V44.1519C64.6119 43.3774 64.2851 42.6389 63.7121 42.1179C62.7679 41.2595 62.5385 39.8643 63.1582 38.7488L63.4396 38.2423C63.9842 37.2621 65.158 36.8198 66.214 37.1969L66.262 37.2141C67.0668 37.5015 67.9571 37.2678 68.7215 36.8857C68.7327 36.88 68.744 36.8744 68.7552 36.8688C69.5572 36.4712 70.1997 35.7732 70.3752 34.8954C70.6084 33.7295 71.6321 32.8902 72.8212 32.8902H73.2975C74.4866 32.8902 75.5103 33.7295 75.7435 34.8954C75.9191 35.7732 76.5616 36.4712 77.3635 36.8689C77.3748 36.8744 77.386 36.88 77.3973 36.8857C78.1616 37.2678 79.0519 37.5015 79.8567 37.2141L79.9047 37.1969C80.9607 36.8198 82.1345 37.2621 82.6791 38.2423L82.9605 38.7488C83.5802 39.8643 83.3508 41.2595 82.4067 42.1179C81.8336 42.6389 81.5069 43.3774 81.5069 44.1519V44.4596C81.5069 45.2341 81.8336 45.9726 82.4067 46.4936C83.3508 47.352 83.5802 48.7472 82.9605 49.8627L82.6791 50.3692C82.1345 51.3494 80.9607 51.7917 79.9047 51.4146C79.0706 51.1167 78.1705 51.3953 77.3685 51.7711C77.3583 51.7758 77.3481 51.7805 77.3379 51.7852C76.5467 52.1464 75.922 52.8238 75.7514 53.6768L75.7427 53.7199C75.51 54.8836 74.4882 55.7213 73.3015 55.7213H72.8212ZM73.0593 47.7304C73.9726 47.7304 74.7717 47.3879 75.4566 46.703C76.1416 46.0181 76.484 45.219 76.484 44.3057C76.484 43.3925 76.1416 42.5934 75.4566 41.9085C74.7717 41.2236 73.9726 40.8811 73.0593 40.8811C72.1461 40.8811 71.347 41.2236 70.6621 41.9085C69.9772 42.5934 69.6347 43.3925 69.6347 44.3057C69.6347 45.219 69.9772 46.0181 70.6621 46.703C71.347 47.3879 72.1461 47.7304 73.0593 47.7304ZM84.1349 32.8902C82.4776 32.8902 81.0542 31.7124 80.7441 30.0843C80.5102 28.8564 79.5985 27.9022 78.525 27.2618C78.5113 27.2537 78.4976 27.2455 78.484 27.2373C77.4562 26.6162 76.2231 26.2801 75.0838 26.6599L74.8778 26.7285C73.2862 27.2591 71.5406 26.601 70.6952 25.1518L70.3535 24.5661C69.5378 23.1676 69.8248 21.3875 71.0388 20.3164L72.1214 19.3612C72.5469 18.9857 72.6027 18.3893 72.6027 17.8217V15.9953C72.6027 15.4277 72.5469 14.8313 72.1213 14.4558L71.0388 13.5006C69.8248 12.4294 69.5378 10.6493 70.3535 9.25089L70.6999 8.65715C71.5425 7.21261 73.2825 6.5567 74.8691 7.08555L75.0808 7.15612C76.2206 7.53607 77.4542 7.19413 78.484 6.57516C78.4961 6.56791 78.5082 6.56069 78.5203 6.55349C79.5963 5.914 80.5105 4.95872 80.7448 3.72909C81.0545 2.10312 82.4761 0.926758 84.1313 0.926758H84.8149C86.4722 0.926758 87.8956 2.10462 88.2057 3.73267C88.4396 4.96061 89.3505 5.91571 90.4258 6.55316C90.4407 6.56197 90.4555 6.57083 90.4703 6.57972C91.4967 7.19667 92.7268 7.53686 93.8629 7.15815L94.0807 7.08555C95.6672 6.5567 97.4072 7.21261 98.2499 8.65715L98.5962 9.25089C99.412 10.6493 99.125 12.4294 97.911 13.5006L96.8284 14.4558C96.4029 14.8313 96.347 15.4277 96.347 15.9953V17.8217C96.347 18.3893 96.4029 18.9857 96.8284 19.3612L97.911 20.3164C99.125 21.3875 99.412 23.1676 98.5962 24.5661L98.2499 25.1598C97.4072 26.6044 95.6672 27.2603 94.0807 26.7314L93.8655 26.6597C92.7278 26.2805 91.4967 26.6216 90.4703 27.2418C90.4581 27.2492 90.4458 27.2566 90.4334 27.264C89.3573 27.9066 88.4389 28.8601 88.2043 30.0914C87.895 31.7153 86.4752 32.8902 84.8221 32.8902H84.1349ZM84.4749 22.6163C86.0731 22.6163 87.4247 22.0637 88.5297 20.9587C89.6347 19.8537 90.1857 18.5036 90.1826 16.9085C90.1826 15.3103 89.6301 13.9587 88.5251 12.8537C87.4201 11.7487 86.07 11.1977 84.4749 11.2007C82.8767 11.2007 81.5251 11.7532 80.4201 12.8583C79.3151 13.9633 78.7641 15.3134 78.7671 16.9085C78.7671 18.5067 79.3196 19.8583 80.4247 20.9633C81.5297 22.0683 82.8798 22.6193 84.4749 22.6163Z" fill="#006FF5"/>
</svg>
